<svg width="13" height="17" viewBox="0 0 13 17" fill="none" xmlns="http://www.w3.org/2000/svg">
<g id="Frame" clip-path="url(#clip0_403_91)">
<path id="Vector" d="M7.30234 16.575C9.03906 14.4434 13 9.27695 13 6.375C13 2.85547 10.0885 0 6.5 0C2.91146 0 0 2.85547 0 6.375C0 9.27695 3.96094 14.4434 5.69766 16.575C6.11406 17.083 6.88594 17.083 7.30234 16.575ZM6.5 4.25C7.07464 4.25 7.62574 4.47388 8.03207 4.8724C8.43839 5.27091 8.66667 5.81141 8.66667 6.375C8.66667 6.93858 8.43839 7.47909 8.03207 7.8776C7.62574 8.27612 7.07464 8.5 6.5 8.5C5.92536 8.5 5.37426 8.27612 4.96794 7.8776C4.56161 7.47909 4.33333 6.93858 4.33333 6.375C4.33333 5.81141 4.56161 5.27091 4.96794 4.8724C5.37426 4.47388 5.92536 4.25 6.5 4.25Z" fill="#FD6660"/>
</g>
<defs>
<clipPath id="clip0_403_91">
<rect width="13" height="17" fill="white"/>
</clipPath>
</defs>
</svg>
