<svg width="19" height="18" viewBox="0 0 19 18" fill="none" xmlns="http://www.w3.org/2000/svg">
<g id="Frame">
<path id="Vector" d="M1.78125 4C0.797852 4 0 4.75586 0 5.6875C0 6.21836 0.263477 6.71758 0.7125 7.0375L8.7875 12.775C9.21055 13.0738 9.78945 13.0738 10.2125 12.775L18.2875 7.0375C18.7365 6.71758 19 6.21836 19 5.6875C19 4.75586 18.2021 4 17.2188 4H1.78125ZM0 7.9375V15.25C0 16.491 1.06504 17.5 2.375 17.5H16.625C17.935 17.5 19 16.491 19 15.25V7.9375L10.925 13.675C10.0789 14.2762 8.92109 14.2762 8.075 13.675L0 7.9375Z" fill="#FD6660"/>
</g>
</svg>
