<svg width="16" height="16" viewBox="0 0 16 16" fill="none" xmlns="http://www.w3.org/2000/svg">
<path id="Vector" d="M5.1529 0.761418C4.91228 0.186239 4.27794 -0.119905 3.67171 0.0439903L0.921834 0.786157C0.378108 0.93459 0 1.42318 0 1.97981C0 9.63031 6.26847 15.8336 13.9994 15.8336C14.5619 15.8336 15.0556 15.4594 15.2056 14.9213L15.9555 12.2001C16.1212 11.6001 15.8118 10.9724 15.2306 10.7343L12.2307 9.49734C11.7214 9.28706 11.1308 9.4324 10.7839 9.85605L9.52146 11.3806C7.32155 10.3508 5.54038 8.58818 4.4998 6.41116L6.04036 5.16494C6.46847 4.8186 6.61533 4.23723 6.40284 3.73318L5.1529 0.764511V0.761418Z" fill="#FD695D"/>
</svg>
