<svg width="30" height="34" viewBox="0 0 30 34" fill="none" xmlns="http://www.w3.org/2000/svg">
<g id="Picto Linkedin">
<path id="Vector" d="M6.71518 29.7503H0.495536V9.8882H6.71518V29.7503ZM3.60201 7.17883C1.61317 7.17883 0 5.54523 0 3.57297C1.42353e-08 2.62562 0.379496 1.71707 1.055 1.04719C1.73051 0.37731 2.6467 0.000976562 3.60201 0.000976562C4.55732 0.000976562 5.47351 0.37731 6.14901 1.04719C6.82452 1.71707 7.20402 2.62562 7.20402 3.57297C7.20402 5.54523 5.59018 7.17883 3.60201 7.17883ZM29.9933 29.7503H23.7871V20.0816C23.7871 17.7773 23.7402 14.8222 20.5533 14.8222C17.3196 14.8222 16.8241 17.3257 16.8241 19.9155V29.7503H10.6112V9.8882H16.5763V12.5976H16.6634C17.4937 11.037 19.5221 9.39016 22.5482 9.39016C28.8429 9.39016 30 13.5007 30 18.8398V29.7503H29.9933Z" fill="white"/>
</g>
</svg>
