<svg width="41" height="43" viewBox="0 0 41 43" fill="none" xmlns="http://www.w3.org/2000/svg">
<g id="Picto Git-Hub">
<path id="Vector" d="M13.7135 33.3754C13.7135 33.5434 13.5234 33.6777 13.2837 33.6777C13.0109 33.7029 12.8208 33.5686 12.8208 33.3754C12.8208 33.2074 13.0109 33.073 13.2506 33.073C13.4986 33.0479 13.7135 33.1822 13.7135 33.3754ZM11.1427 32.9975C11.0849 33.1654 11.2502 33.3586 11.4982 33.409C11.7131 33.493 11.9611 33.409 12.0107 33.241C12.0603 33.073 11.9032 32.8799 11.6552 32.8043C11.4403 32.7455 11.2006 32.8295 11.1427 32.9975ZM14.7964 32.8547C14.5567 32.9135 14.3913 33.073 14.4161 33.2662C14.4409 33.4342 14.6558 33.5434 14.9038 33.4846C15.1435 33.4258 15.3089 33.2662 15.2841 33.0982C15.2593 32.9387 15.0361 32.8295 14.7964 32.8547ZM20.2355 0.671875C8.77036 0.671875 0 9.51543 0 21.1641C0 30.4779 5.76976 38.448 14.0111 41.2531C15.0692 41.4463 15.4411 40.7828 15.4411 40.2369C15.4411 39.7162 15.4163 36.8439 15.4163 35.0803C15.4163 35.0803 9.63004 36.34 8.41492 32.5775C8.41492 32.5775 7.47258 30.1336 6.11694 29.5037C6.11694 29.5037 4.22399 28.1852 6.24919 28.2104C6.24919 28.2104 8.30746 28.3783 9.43992 30.3771C11.2502 33.6189 14.2839 32.6867 15.4659 32.1324C15.656 30.7887 16.1933 29.8564 16.7885 29.3021C12.1677 28.7814 7.50565 28.1012 7.50565 20.0219C7.50565 17.7123 8.13387 16.5533 9.45645 15.0752C9.24153 14.5293 8.53891 12.2785 9.67137 9.37266C11.399 8.82676 15.375 11.6402 15.375 11.6402C17.0282 11.1699 18.8054 10.9264 20.5661 10.9264C22.3268 10.9264 24.104 11.1699 25.7573 11.6402C25.7573 11.6402 29.7333 8.81836 31.4609 9.37266C32.5933 12.2869 31.8907 14.5293 31.6758 15.0752C32.9984 16.5617 33.8085 17.7207 33.8085 20.0219C33.8085 28.1264 28.9397 28.773 24.319 29.3021C25.0794 29.9656 25.7242 31.2254 25.7242 33.199C25.7242 36.0293 25.6994 39.5314 25.6994 40.2201C25.6994 40.766 26.0796 41.4295 27.1294 41.2363C35.3956 38.448 41 30.4779 41 21.1641C41 9.51543 31.7006 0.671875 20.2355 0.671875ZM8.03468 29.6381C7.92722 29.7221 7.95202 29.9152 8.09254 30.0748C8.2248 30.2092 8.41492 30.268 8.52238 30.1588C8.62984 30.0748 8.60504 29.8816 8.46452 29.7221C8.33226 29.5877 8.14214 29.5289 8.03468 29.6381ZM7.14194 28.9578C7.08407 29.067 7.16673 29.2014 7.33206 29.2854C7.46431 29.3693 7.62964 29.3441 7.6875 29.2266C7.74536 29.1174 7.6627 28.983 7.49738 28.899C7.33206 28.8486 7.1998 28.8738 7.14194 28.9578ZM9.82016 31.9477C9.6879 32.0568 9.7375 32.3088 9.92762 32.4684C10.1177 32.6615 10.3575 32.6867 10.4649 32.5523C10.5724 32.4432 10.5228 32.1912 10.3575 32.0316C10.1756 31.8385 9.92762 31.8133 9.82016 31.9477ZM8.87782 30.7131C8.74557 30.7971 8.74557 31.0154 8.87782 31.2086C9.01008 31.4018 9.23327 31.4857 9.34073 31.4018C9.47298 31.2926 9.47298 31.0742 9.34073 30.8811C9.225 30.6879 9.01008 30.6039 8.87782 30.7131Z" fill="white"/>
</g>
</svg>
